<svg id="Layer_1" data-name="Layer 1" xmlns="http://www.w3.org/2000/svg" viewBox="0 0 127 31"><defs><style>.cls-1{fill:#003946;}.cls-2{fill:#febe10;}</style></defs><path class="cls-1" d="M47.92,13.67c-.35-1.35-.85-4-3.74-4a2.52,2.52,0,0,0-2.65,2.65c0,4.08,8.48,3.82,8.48,9.49,0,3.77-3.34,5.15-6.52,5.15a9.62,9.62,0,0,1-4.67-1.07,12.17,12.17,0,0,1-.77-5l1.25-.27c.37,1.6,1.25,5.31,4.64,5.31a2.71,2.71,0,0,0,2.79-3c0-4.48-8.23-4.13-8.23-9.57,0-3.37,2.5-4.77,5.92-4.77a7.82,7.82,0,0,1,4.16,1,24.72,24.72,0,0,1,.3,4.06Z"/><path class="cls-1" d="M60.72,25.57a7.2,7.2,0,0,1-4,1.36c-4.12,0-4.3-2.39-4.3-5.33V17.75c0-.93,0-2.12-.8-2.12a2.75,2.75,0,0,0-.84.16V15a17.64,17.64,0,0,1,4.82-.95v7.45c0,2.09.4,3.87,3,3.87a3.86,3.86,0,0,0,2-.66v-7c0-.93,0-2.12-.8-2.12a2.75,2.75,0,0,0-.84.16V15a17.64,17.64,0,0,1,4.82-.95V22c0,2.18,0,3.21.9,3.21a4,4,0,0,0,.75,0l0,.69a33.15,33.15,0,0,1-4,1.06Z"/><path class="cls-1" d="M68,17.75c0-.93,0-2.12-.8-2.12a2.84,2.84,0,0,0-.85.16V15a17.47,17.47,0,0,1,4.78-.95V15.6a6,6,0,0,1,4.19-1.53c2.39,0,4,1.14,4,4.72V24c0,1.4.14,1.7,1.09,1.78l.56.05v.69H74.47v-.69l.56-.05c1-.08,1.09-.38,1.09-1.78V20.24c0-2.09,0-4.64-2.76-4.64a2.92,2.92,0,0,0-2.2,1V24c0,1.41.13,1.7,1.09,1.78l.55.05v.69H66.39v-.69l.55-.05c.9-.08,1-.37,1-1.78V17.75Z"/><path class="cls-1" d="M85.77,25.84l.64-.08c1.24-.24,1.24-.13,1.24-3.16V12.87c0-2.57,0-2.89-1.24-3.07l-.64-.08V9H93v.69l-.63.08c-1.25.18-1.25.5-1.25,3.07V25.15a10.67,10.67,0,0,0,2.44.37c3.74,0,3.77-1.8,4.54-4l1,.18a18.93,18.93,0,0,1-.93,4.83H85.77Z"/><path class="cls-1" d="M99.64,25.84l.56-.05c1-.11,1.09-.38,1.09-1.78V17.75c0-.93,0-2.12-.8-2.12a2.84,2.84,0,0,0-.85.16V15a17.77,17.77,0,0,1,4.83-.95V24c0,1.4.13,1.67,1.09,1.78l.56.05v.69H99.64ZM100.84,10a1.82,1.82,0,0,1,1.85-1.83,1.86,1.86,0,1,1,0,3.72A1.82,1.82,0,0,1,100.84,10Z"/><path class="cls-1" d="M108.8,14.46c0-3.68,1.83-7.42,6-7.42a4.58,4.58,0,0,1,2.89.87,3.47,3.47,0,0,1-1.07,2h-.18c-.51-.47-1.73-1.54-2.76-1.54-1.59,0-1.7,2.15-1.7,4.59v1.51c.8,0,2.42.14,3.29.24v.69c-1.14.13-2.17.21-3.29.27V24c0,1.4.14,1.69,1.12,1.77l1.06.06v.69h-7v-.69l.53-.06c1-.1,1.11-.37,1.11-1.77V14.46Z"/><path class="cls-1" d="M126.92,25.23a7.86,7.86,0,0,1-5,1.7,5.91,5.91,0,0,1-6.2-6.26c0-4.22,3-6.6,6.07-6.6,4.27,0,5,2.78,5.25,4.32a42.16,42.16,0,0,1-8,2.54c.29,1.59,1.09,4.46,4.72,4.46a6.4,6.4,0,0,0,2.92-.77Zm-3.1-6.68c-.19-1.91-1-3.48-2.65-3.48-2.31,0-2.31,4.14-2.31,4.62A32.68,32.68,0,0,0,123.82,18.55Z"/><path class="cls-2" d="M17.1,2.57a6.45,6.45,0,0,1,0-1.39,3.53,3.53,0,0,1,.11-.65l0-.24a.09.09,0,0,0-.14-.1,7.24,7.24,0,0,0-1.59,1.89A4.67,4.67,0,0,0,14.86,4a13.13,13.13,0,0,1,2.47.54A12.64,12.64,0,0,0,17.1,2.57Z"/><path class="cls-2" d="M11.17,4.05a13.29,13.29,0,0,1,2.26-.16,1.59,1.59,0,0,0-.06-.3A6.24,6.24,0,0,0,13,2.68a8.39,8.39,0,0,1-.38-1,4.41,4.41,0,0,1-.18-.8,3.62,3.62,0,0,1,0-.46V.24c0-.08-.1-.12-.14-.06a5.77,5.77,0,0,0-.86,1.76,5.14,5.14,0,0,0-.27,1.35,2.43,2.43,0,0,0,0,.6Z"/><path class="cls-2" d="M7.58,5l.06.12L7.86,5a13.36,13.36,0,0,1,1.67-.6l-.11-.21a4.73,4.73,0,0,0-.58-.68,7.56,7.56,0,0,1-.57-.79,5.07,5.07,0,0,1-.35-.65,2.52,2.52,0,0,1-.12-.39s0-.07,0-.12a.08.08,0,0,0-.14,0,5.13,5.13,0,0,0-.31,1.71A4.1,4.1,0,0,0,7.4,4.49,2.47,2.47,0,0,0,7.58,5Z"/><path class="cls-2" d="M21.62,6.81a13,13,0,0,1,2.13,2.13,15.21,15.21,0,0,0,1.1-2.07,8.25,8.25,0,0,1,.9-1.39,6,6,0,0,1,.56-.57,2.65,2.65,0,0,1,.22-.2.11.11,0,0,0-.08-.2,8.74,8.74,0,0,0-2.86.81A5.34,5.34,0,0,0,21.62,6.81Z"/><path class="cls-2" d="M25.54,11.89c.07.16.13.32.19.48a14.52,14.52,0,0,0,1.77-1.91,8.46,8.46,0,0,1,1.34-1.2,5,5,0,0,1,.74-.45l.28-.15a.12.12,0,0,0,0-.23,9.68,9.68,0,0,0-3.22.05,6.1,6.1,0,0,0-2.46,1A13.58,13.58,0,0,1,25.54,11.89Z"/><path class="cls-2" d="M21.3,4.14a6.82,6.82,0,0,1,.44-1.46A4.41,4.41,0,0,1,22.07,2l.14-.23a.1.1,0,0,0-.11-.16A8,8,0,0,0,19.79,3.1a5.2,5.2,0,0,0-1.34,1.84,13.29,13.29,0,0,1,2.43,1.32A12.83,12.83,0,0,0,21.3,4.14Z"/><path class="cls-2" d="M28.88,17.25a5.22,5.22,0,0,0-2.21-.39,13.55,13.55,0,0,1-.2,2.78,12.16,12.16,0,0,0,2.15-.57,6.93,6.93,0,0,1,1.5-.26,3.56,3.56,0,0,1,.73,0l.27,0a.1.1,0,0,0,.09-.17A8.05,8.05,0,0,0,28.88,17.25Z"/><path class="cls-2" d="M31.29,13.51a8.75,8.75,0,0,0-2.86-.79A5.59,5.59,0,0,0,26,13a13.5,13.5,0,0,1,.65,3A13.75,13.75,0,0,0,28.7,14.7,8.19,8.19,0,0,1,30.19,14a5.16,5.16,0,0,1,.77-.21l.3-.06A.11.11,0,0,0,31.29,13.51Z"/><path class="cls-2" d="M22.1,27.39a13.93,13.93,0,0,1-1.62,1.21,8.93,8.93,0,0,0,1.3.91,5.8,5.8,0,0,1,.84.72,3.39,3.39,0,0,1,.33.42l.12.16a.07.07,0,0,0,.13,0,5.72,5.72,0,0,0-.29-2A3.64,3.64,0,0,0,22.1,27.39Z"/><path class="cls-2" d="M24.64,24.39a14.13,14.13,0,0,1-1.36,1.82,9.6,9.6,0,0,0,1.72.56,6,6,0,0,1,1.14.49,4,4,0,0,1,.5.34l.18.13a.08.08,0,0,0,.13-.08,6.55,6.55,0,0,0-1-2A4.11,4.11,0,0,0,24.64,24.39Z"/><path class="cls-2" d="M28,21.69a4.79,4.79,0,0,0-1.83-.92,13.22,13.22,0,0,1-.88,2.37,11.15,11.15,0,0,0,2,.06,7.23,7.23,0,0,1,1.38.17,5.17,5.17,0,0,1,.63.21l.23.09c.09,0,.17-.05.12-.13A7.46,7.46,0,0,0,28,21.69Z"/><path class="cls-2" d="M10.69,28.15a11.67,11.67,0,0,1-5.77-.58A13.75,13.75,0,0,0,7.2,29.06a13.18,13.18,0,0,0,6.47,1.49,13.7,13.7,0,0,0,2.89-.4,14.15,14.15,0,0,1-4.44-1.24A15,15,0,0,1,10.69,28.15Z"/><path class="cls-2" d="M22.36,22.67a.15.15,0,0,0,0-.17c-.06-.07-.16,0-.16,0a20.54,20.54,0,0,1-4.66,3.41c-.34.18-.69.35-1,.51A20.08,20.08,0,0,1,12,27.94c.44.24.89.47,1.35.67a15.14,15.14,0,0,0,4.36,1.2,12.46,12.46,0,0,0,1.76-.76,22.2,22.2,0,0,1-2.32-2A15.45,15.45,0,0,0,22.36,22.67Z"/><path class="cls-2" d="M1.47,20.17l.32.16a6.38,6.38,0,0,0,1.34.43,9.13,9.13,0,0,0,1.32.18c-.19-.46-.36-.92-.51-1.39a14.92,14.92,0,0,1-.53-2.24c0-.25-.07-.51-.1-.77s0-.44-.05-.65,0-.23,0-.35c0-.44,0-.88,0-1.31a4.21,4.21,0,0,1-1.35-.4l-.14-.08a2.37,2.37,0,0,1-.59-.49A2.39,2.39,0,0,1,1,12.92a2.06,2.06,0,0,1-.12-.35,13.13,13.13,0,0,0-.49,1.62c0,.22-.1.44-.14.67A12,12,0,0,0,0,16.22c0,.11,0,.22,0,.33,0,.34,0,.69,0,1s.05.88.1,1.31A3.61,3.61,0,0,0,1.47,20.17Z"/><path class="cls-2" d="M5.36,14.23c-.35,0-.68,0-1,.06,0,.31,0,.62,0,.93h0l0,.31c0,.18,0,.35,0,.52a16.83,16.83,0,0,0,.42,2.41A15.75,15.75,0,0,0,5.73,21a19.3,19.3,0,0,0,5.86-1.3,41.76,41.76,0,0,1-2.12-4.47c-.11-.26-.21-.52-.31-.78.38-.15.77-.31,1.16-.5A15,15,0,0,0,15.8,9.76c.08-.1.14-.19.21-.29s.07-.11,0-.18a.12.12,0,0,0-.17,0c-.21.21-.44.41-.68.62A19.14,19.14,0,0,1,11,12.55a19.64,19.64,0,0,1-2.19.88A16.33,16.33,0,0,1,6.71,14C6.24,14.11,5.79,14.18,5.36,14.23Z"/><path class="cls-2" d="M1.85,12.4a2.19,2.19,0,0,0,.74.45,1.14,1.14,0,0,0,.26.09,3.33,3.33,0,0,0,.5.12c0-.2,0-.4.08-.6L3.52,12c.1-.53.23-1.05.38-1.57A16.89,16.89,0,0,1,5.2,7.26c.15-.27.3-.54.47-.81l.14-.22a13.72,13.72,0,0,0-1.14.87,13.67,13.67,0,0,0-3.34,4.32,1.89,1.89,0,0,0,.13.48A1.58,1.58,0,0,0,1.85,12.4Z"/><path class="cls-2" d="M4.68,11c0,.19-.07.39-.1.59-.08.51-.14,1-.17,1.55A11,11,0,0,0,7,12.87c.48-.1,1-.24,1.49-.4-.06-.17-.11-.35-.17-.52-.24-.74-.45-1.44-.64-2.09-.06-.23-.13-.45-.18-.67s-.19-.72-.27-1C7,7.49,6.9,6.92,6.8,6.44c0-.21-.08-.4-.11-.57s0-.08,0-.12L6.55,6c-.15.26-.29.54-.42.81A16.71,16.71,0,0,0,5.05,9.51C4.91,10,4.78,10.51,4.68,11Z"/><path class="cls-2" d="M9.39,27.27a15.85,15.85,0,0,1-3.65-3.92c-.24-.38-.48-.77-.69-1.18a8.76,8.76,0,0,1-2.45-.32,5.42,5.42,0,0,1-1.07-.42l-.29-.17a3.81,3.81,0,0,1-.81-.67,13.13,13.13,0,0,0,.63,1.86c0,.09.08.19.13.29.14.32.31.64.48,1a8.3,8.3,0,0,0,.49.81,13.18,13.18,0,0,0,1,1.3A9.07,9.07,0,0,0,9.39,27.27Z"/><path class="cls-2" d="M14.06,19.84c-.63.31-1.26.58-1.89.83a20.54,20.54,0,0,1-5.86,1.45A11.66,11.66,0,0,0,7,23.25a14.63,14.63,0,0,0,3.73,3.87,21.1,21.1,0,0,0,5.06-1.47,30.9,30.9,0,0,1-3-4c.35-.15.7-.32,1.05-.49a17.69,17.69,0,0,0,7-5.82.13.13,0,0,0-.18-.18A23,23,0,0,1,14.06,19.84Z"/></svg>